<svg width="58" height="61" viewBox="0 0 58 61" fill="none" xmlns="http://www.w3.org/2000/svg">
<path id="icon" fill-rule="evenodd" clip-rule="evenodd" d="M17.4 12.2H11.6V9.14975H5.80001V18.2998H52.2V9.14975H46.4V12.2H40.6V9.14975H17.4V12.2ZM5.80001 54.8996V24.3998H52.2V54.8996H5.80001ZM40.6 3.05015H17.4V0H11.6V3.05015H5.8C2.59675 3.05015 0 5.78121 0 9.15013V54.9C0 58.2689 2.59675 61 5.8 61H52.2C55.4033 61 58 58.2689 58 54.9V9.15013C58 5.78121 55.4033 3.05015 52.2 3.05015H46.4V0H40.6V3.05015ZM35.6494 28.3432L29 35.3365L22.3506 28.3432L18.2494 32.6565L24.8988 39.6498L18.2494 46.6431L22.3506 50.9565L29 43.9632L35.6494 50.9565L39.7506 46.6431L33.1012 39.6498L39.7506 32.6565L35.6494 28.3432Z" fill="#515070"/>
</svg>
