<svg xmlns="http://www.w3.org/2000/svg" width="30" height="30" viewBox="0 -2 19 21" fill="none">
    <path d="M10.0154 14.5455V12.4848L15.9134 7.34546L18.2782 9.40606L12.3802 14.5455H10.0154ZM0 9.69697V7.75758H7.78979V9.69697H0ZM19.0572 8.72727L16.6924 6.66667L17.4992 5.96364C17.7032 5.78586 17.9629 5.69697 18.2782 5.69697C18.5935 5.69697 18.8532 5.78586 19.0572 5.96364L19.864 6.66667C20.068 6.84444 20.17 7.07071 20.17 7.34546C20.17 7.6202 20.068 7.84646 19.864 8.02424L19.0572 8.72727ZM0 5.81818V3.87879H12.2411V5.81818H0ZM0 1.93939V0H12.2411V1.93939H0Z" fill="var(--lecoder-purple, purple)"/>
</svg>